<?xml version="1.0" encoding="UTF-8"?><svg xmlns="http://www.w3.org/2000/svg" viewBox="0 0 120 120"><defs><style>.cls-1{fill:#ffd280;}.cls-2{fill:#9ba0fc;}</style></defs><g id="_Слой_1"><circle class="cls-1" cx="60" cy="60" r="60"/></g><g id="_Слой_2"><path class="cls-2" d="M47.23,16.86c-11.19,6.24-16.72,19.63-21.03,30.99-5.2,13.7-8.27,30.56-4.59,44.92,1.39,5.4,4.97,4.57,6.37-.16,1.94-6.56,5.65-12.39,9.54-17.93,4.35-6.18,9.8-11.02,14.57-16.81,.39-.47,.46-2.31-.35-2.44-6.45-1.01-14.43,3.63-18.82,8.04-5.84,5.85-9.13,12.96-11.51,20.78l6.37-.16c-1.25-5.04,.23-10.59,.84-15.64,.68-5.71,1.32-11.53,2.48-17.16,2.37-11.46,7.07-24.68,16.47-32.21,.48-.39,.39-2.62-.32-2.22h0Z"/><path class="cls-2" d="M76.72,17.46c-5.72,9.26-8.41,20.75-11.14,31.17-3.22,12.24-5.64,24.67-9.16,36.84-.89,3.09-.73,8.21,1.22,10.9,1.63,2.24,3.77,2.19,4.84-.78,.6-1.67,1.1-3.28,1.5-5.01,.73-3.1,.78-7.86-1.18-10.56-1.65-2.27-3.52-1.99-4.69,.76-.44,.97-.83,1.96-1.16,2.97,2.02,3.37,4.04,6.74,6.06,10.12,6.99-24.15,11.33-49.52,14.92-74.37,.07-.45-.47-3.21-1.21-2.02h0Z"/><path class="cls-2" d="M76.21,25.11c4.75-1.3,10.32-1.21,14.69,1.26s8.53,7.39,5.72,12.45c-4.61,8.29-15.86,10.25-24.42,9.76,.42,5.02,.84,10.04,1.26,15.06,5.5-1.89,13.03-.39,17.41,3.38,1.36,1.17,2.06,2.53,3.09,3.91,.81,1.08,.71,.58,.11,1.69-1.39,2.56-2.22,4.95-4.2,7.21-4.1,4.69-9.96,6.84-16.13,6.58-3.17-.13-6.23-.86-9.16-2.07-2.71-1.12-5.09-3.15-8.07-3.24-4.98-.15-2.95,12.09-1.33,14.23,5.32,7.01,17.99,9.43,26.15,7.27,9.19-2.44,15.45-10.34,18.38-19.08s2.34-20.39-3.97-27.99c-5.81-7-15.88-9.73-24.43-6.64-3.73,1.35-3.22,15,1.26,15.06,16.13,.2,29.1-9.07,29.85-25.99,.28-6.31-1.4-13.04-6.62-17.03-6.1-4.67-13.67-3.79-19.96-.16-.95,.55-.83,4.68,.36,4.35h0Z"/></g></svg>