<svg xmlns="http://www.w3.org/2000/svg" viewBox="0 0 249.99994 249.99994"><defs><style>.a{fill:#ffb50e;}.b{fill:#fff17a;}.c{fill:#fff;}</style></defs><path d="M0,0V249.99994H249.99994V0Z"/><path class="a" d="M120.36161,213.79713H130.4638L156.01411,7.86163H94.772l25.58962,205.9355m81.99683,0L242.099,176.41505V118.86789l-57.42925,94.92924h17.68868M7.82232,175.58958h.03931L48.467,213.79713H66.11633L7.82232,117.4528v58.13678m0-167.728V35.80974l77.555,177.98739h19.96855L48.89936,7.86163H7.82232M242.099,37.77515V7.86163H201.92606l-56.48584,205.9355h19.96854Z"/><path class="b" d="M242.099,176.41505l-39.74057,37.38208h39.77987l-.0393-37.38208M48.467,213.79713,7.86163,175.58958v38.20755H48.467M94.772,7.86163H48.89936l56.44653,205.9355h15.01572L94.772,7.86163M7.82232,35.80974V117.4528l58.294,96.34433h19.261L7.82232,35.80974M201.92606,7.86163h-45.912L130.4638,213.79713h14.97642L201.92606,7.86163M242.099,118.86789V37.77515l-76.69025,176.022h19.261Z"/><path d="M14.11163,170.47952l-7.03616,1.25786v61.71383h235.849V173.3097q-2.09316.03686-4.206.27517l-.74684-6.17139-.4324-.15723-6.83961,2.94811.5503,7.783-4.717.19654V163.79713l-6.72169-2.12265.11792-.55031-2.47641,8.60849-4.04873-1.17925-.23587-4.95282h-17.217V186.36l-167.5314,1.022q-1.0515.1766-2.12265.31447l-2.47641-14.033a48.0638,48.0638,0,0,1-6.64308,1.06133l1.33648,6.48585a15.51732,15.51732,0,0,0-4.12736.15723Q14.15186,173.89225,14.11163,170.47952Z"/><path d="M84.1909,37.04316a.07062.07062,0,0,1,0,.05481,1.28167,1.28167,0,0,1-.19185.05481,3.61552,3.61552,0,0,0-1.67183,1.26074v.0274a28.25228,28.25228,0,0,0-.19185,3.56291q.0471,1.4682.16444,2.3296l.19185.35629a.28259.28259,0,0,0,.05482.02741A3.14844,3.14844,0,0,0,84.38275,45.786a2.42718,2.42718,0,0,0,.35629,1.1785.18536.18536,0,0,1-.08222,0q-1.63083.47962-3.34366.93184-1.19221.34258-2.41182.65778A12.79055,12.79055,0,0,0,76.654,49.486l-.08222.02742L74.54362,54.7207q-.44151,1.6474-.93184,3.26143-.17214.57255-.30148,1.1237-.2958,2.51736-.93184,6.2762a11.70823,11.70823,0,0,0,.32889,3.06959,11.23426,11.23426,0,0,0,3.39847,5.50881,1.48555,1.48555,0,0,0,.21926.19185,2.8498,2.8498,0,0,0,.877.46592,2.65638,2.65638,0,0,0,.52074.10963,19.12066,19.12066,0,0,0,6.82435-.46592,17.3669,17.3669,0,0,0,2.68589-.93184q2.29533-1.00743,4.54957-2.11034,2.22006-1.05559,4.33031-2.3296,2.13774-1.24015,4.27549-2.43922,2.06227-1.17145,4.22069-2.16516,2.23367-1.00035,4.46734-1.97331a3.46322,3.46322,0,0,1,.32889-.10962,1.60171,1.60171,0,0,0,1.01406-.54814.52719.52719,0,0,0,.24666.08222q.04112.01359.02741-.02741a.16347.16347,0,0,0,.08222-.10963q.01369-.01382-.02741-.05482-.03478-.14474-.08222-.30147a.02986.02986,0,0,0,0-.02741.12351.12351,0,0,0,0-.08222.30758.30758,0,0,0-.05481-.10962.20019.20019,0,0,0-.02741-.05482q-.65466-1.998-1.50739-3.94662a45.2897,45.2897,0,0,0-2.46663-4.65919q-.8387-.57438-.877-.57554-.45766-.307-.93183-.603-1.35569-.86043-2.74071-1.64442l-.05481-.0274a6.41881,6.41881,0,0,0-1.42517-.7126q-.14175-.04893-.30147-.10962v.0274h-.02741l-.08222-.05481.52073-1.50739,2.27478-.877q.19679-.76374.3563-1.56219a33.8339,33.8339,0,0,0,.54814-4.05625l-.65777-.98665a21.52143,21.52143,0,0,0,.32888-3.50809,11.477,11.477,0,0,0-1.58961-.84963,7.72818,7.72818,0,0,0-2.27478-3.234,9.80555,9.80555,0,0,0-12.8813,0,7.52509,7.52509,0,0,0-2.60367,4.96068m5.64584-1.20591a.68491.68491,0,0,0,.16445-.08222.70528.70528,0,0,0,.16444-.05482,30.4867,30.4867,0,0,1,11.6754,1.06888,2.62411,2.62411,0,0,1,.27407.52073,7.56184,7.56184,0,0,1-.41111,3.5081v.02741a1.16627,1.16627,0,0,1-.30148.54814,4.12244,4.12244,0,0,1-1.53479-.02741.19635.19635,0,0,0-.02741-.10962l-.30148-.84963a.18912.18912,0,0,0-.0274-.08222l-.19185-.46592v-.0274a.73625.73625,0,0,0-.68518-.52074h0q-.84372-.114-1.69923-.16444a.92055.92055,0,0,0-.877.52074l-.49333.60294q-.02547.04188-.05481.08224l-.27407.32887a1.937,1.937,0,0,1-1.20591.3563,12.29524,12.29524,0,0,1-4.05624-.32888q-.34194-.14155-.52073-2.00071h0a15.12749,15.12749,0,0,1,.10962-2.65849q.1288-.0815.27407-.16445v-.0274m14.33388,17.59532a32.14118,32.14118,0,0,0,.137,4.35771l.63036,3.20662-.05481.137.19185.19185h.08222a.22231.22231,0,0,1-.08222.19185A10.41556,10.41556,0,0,1,102.444,63.025q-4.04736,1.58092-7.948,3.53551a22.682,22.682,0,0,1-6.00214,2.02811,5.682,5.682,0,0,1-2.96-.137,4.17089,4.17089,0,0,1-.4111-.137q-.75658-1.42687-3.75477-6.2214l2.87774,1.78146a27.44282,27.44282,0,0,0-.05481-4.85105q-.1926-1.55342-.41111-3.26142a21.25717,21.25717,0,0,0-1.20591-4.49476l3.59032-.52073q.1593.22374.32889.43851a10.9463,10.9463,0,0,0,1.23331,1.28813,12.28649,12.28649,0,0,0,1.1511.90443,12.71138,12.71138,0,0,0,2.87774,1.5896,11.54817,11.54817,0,0,0,4.46734.84963,6.53348,6.53348,0,0,0,4.2755-1.5348l.95925-1.83628a11.2524,11.2524,0,0,1,2.71329.98667M98.36033,41.072a1.13826,1.13826,0,0,1,.05482.16445q.07258.21948.137.4111a2.31685,2.31685,0,0,1,.10963.43851q.03436.10719.137.35629a1.43856,1.43856,0,0,1,.05481.27407l.05481.05481q.19988.06566.41111.137a3.91484,3.91484,0,0,1,.3837.10963,1.06,1.06,0,0,0,.16444.05482q.05556.02718.21926.10962a.25536.25536,0,0,1,.137.24667q-.08051.52951-.137.76739a3.2173,3.2173,0,0,1-.137.52074q-.03662.12773-.08222.24666-.18018.52576-.35629.98666l-.19185.49332a.79478.79478,0,0,1-.27407.32889,3.52178,3.52178,0,0,1-.7948.41111,4.96756,4.96756,0,0,1-1.1511.27407,3.0636,3.0636,0,0,1-.32889.0274,2.31628,2.31628,0,0,1-.27407.0274h-.57554q-.14967-.02613-.30148-.0548l-.95925-.24667q-.43305-.22376-.877-.46593a2.60287,2.60287,0,0,1-.79481-.65775,9.20237,9.20237,0,0,1-.32888-.93185q-.051-.21315-.10963-.43851-.074-.2685-.137-.54814a.65946.65946,0,0,1-.05482-.19185.09782.09782,0,0,1,0-.05482.02315.02315,0,0,1,0-.0274.02318.02318,0,0,1,0-.02741q-.01563-.0411-.0274-.08222a2.26962,2.26962,0,0,1,.0274-.24667q.07944-.19976.16444-.38369.07334-.16958.63037-.24667l.16444-.0274q.29174-.00835.68517-.05482.51955-.07911,1.12369-.16443a3.71171,3.71171,0,0,0,1.09628-.32889.11842.11842,0,0,0,.05482-.02742q.0957-.14292.19185-.27407.1076-.178.21925-.35629a4.05836,4.05836,0,0,0,.24667-.38368q.0986-.12258.19185-.24667a.57068.57068,0,0,1,.05481-.08222.46632.46632,0,0,0,.10963-.02742A3.23467,3.23467,0,0,1,98.36033,41.072Z"/><path class="c" d="M98.41515,41.23644a1.13826,1.13826,0,0,0-.05482-.16445,3.23467,3.23467,0,0,0-1.06887-.137.46632.46632,0,0,1-.10963.02742.57068.57068,0,0,0-.05481.08222q-.09325.12407-.19185.24667a4.05836,4.05836,0,0,1-.24667.38368q-.11166.17826-.21925.35629-.09615.13116-.19185.27407a.11842.11842,0,0,1-.05482.02742,3.71171,3.71171,0,0,1-1.09628.32889q-.60412.0853-1.12369.16443-.39344.04647-.68517.05482l-.16444.0274q-.557.07709-.63037.24667-.085.18393-.16444.38369a2.26962,2.26962,0,0,0-.0274.24667q.01178.04113.0274.08222a.02318.02318,0,0,0,0,.02741.02315.02315,0,0,0,0,.0274.09782.09782,0,0,0,0,.05482.65946.65946,0,0,0,.05482.19185q.06306.27963.137.54814.05867.22536.10963.43851a9.20237,9.20237,0,0,0,.32888.93185,2.60287,2.60287,0,0,0,.79481.65775q.444.24219.877.46593l.95925.24667q.15181.02868.30148.0548h.57554a2.31628,2.31628,0,0,0,.27407-.0274,3.0636,3.0636,0,0,0,.32889-.0274,4.96756,4.96756,0,0,0,1.1511-.27407,3.52178,3.52178,0,0,0,.7948-.41111.79478.79478,0,0,0,.27407-.32889l.19185-.49332q.17611-.46089.35629-.98666.04561-.11894.08222-.24666a3.2173,3.2173,0,0,0,.137-.52074q.05652-.23789.137-.76739a.25536.25536,0,0,0-.137-.24667q-.16369-.08245-.21926-.10962a1.06,1.06,0,0,1-.16444-.05482,3.91484,3.91484,0,0,0-.3837-.10963q-.21123-.07142-.41111-.137l-.05481-.05481a1.43856,1.43856,0,0,0-.05481-.27407q-.10267-.24912-.137-.35629a2.31685,2.31685,0,0,0-.10963-.43851q-.06444-.19162-.137-.4111m5.89251,16.55384a32.14118,32.14118,0,0,1-.137-4.35771,11.2524,11.2524,0,0,0-2.71329-.98667l-.95925,1.83628a6.53348,6.53348,0,0,1-4.2755,1.5348,11.54817,11.54817,0,0,1-4.46734-.84963,12.71138,12.71138,0,0,1-2.87774-1.5896,12.28649,12.28649,0,0,1-1.1511-.90443,10.9463,10.9463,0,0,1-1.23331-1.28813q-.16958-.21477-.32889-.43851l-3.59032.52073a21.25717,21.25717,0,0,1,1.20591,4.49476q.2185,1.708.41111,3.26142a27.44282,27.44282,0,0,1,.05481,4.85105L81.368,62.09318q2.99818,4.79453,3.75477,6.2214a4.17089,4.17089,0,0,0,.4111.137,5.682,5.682,0,0,0,2.96.137,22.682,22.682,0,0,0,6.00214-2.02811q3.90067-1.95458,7.948-3.53551a10.41556,10.41556,0,0,0,2.63108-1.50739.22231.22231,0,0,0,.08222-.19185h-.08222l-.19185-.19185.05481-.137-.63036-3.20662M90.00119,35.755a.68491.68491,0,0,1-.16445.08222v.0274q-.14528.083-.27407.16445a15.12749,15.12749,0,0,0-.10962,2.65849h0q.17878,1.85917.52073,2.00071a12.29524,12.29524,0,0,0,4.05624.32888,1.937,1.937,0,0,0,1.20591-.3563L95.51,40.332q.02934-.04038.05481-.08224l.49333-.60294a.92055.92055,0,0,1,.877-.52074q.85551.05042,1.69923.16444h0a.73625.73625,0,0,1,.68518.52074v.0274l.19185.46592a.18912.18912,0,0,1,.0274.08222l.30148.84963a.19635.19635,0,0,1,.02741.10962,4.12244,4.12244,0,0,0,1.53479.02741,1.16627,1.16627,0,0,0,.30148-.54814v-.02741a7.56184,7.56184,0,0,0,.41111-3.5081,2.62411,2.62411,0,0,0-.27407-.52073,30.4867,30.4867,0,0,0-11.6754-1.06888A.70528.70528,0,0,1,90.00119,35.755Z"/><path d="M229.66743,34.4943l-.05481-.0548a17.4987,17.4987,0,0,0-21.10342-3.37108.631.631,0,0,0-.16444.05482,17.26892,17.26892,0,0,0-2.60367,1.83627h.02741l-.32889.27407a.48331.48331,0,0,0-.10962.08222q-1.40643,1.13119-2.82293,2.3022a.1835.1835,0,0,0-.137.10961l-10.031,8.08508q-1.52034,1.19445-2.98736,2.41183a.22582.22582,0,0,0-.10964.0548h-.0274q-.36476.30833-.79481.65778a13.85522,13.85522,0,0,0-2.65848,2.7407,11.60059,11.60059,0,0,0-1.28813,2.13775,9.56233,9.56233,0,0,0-.46592,1.15109l.02741-.0274a.3186.3186,0,0,0-.05481.16444L160.218,69.822a.33066.33066,0,0,1-.05482.02741q-1.07464-.81077-2.11034-1.50739a2.59463,2.59463,0,0,0-.95924-.35629h0l-52.34744-7.75619-.02741-.0274a19.67554,19.67554,0,0,0-8.9895,1.53479q-1.1025.50082-2.19257,1.01406-2.00766.97359-4.02883,1.94589-1.75416.89757-3.5355,1.78146-.89769.44535-11.18208,6.30362l-.0274-.0274v.0274q-2.86629,1.87952-5.75548,3.86439-1.5273,1.05988-3.06959,2.13775-3.68731,2.63547-7.37249,5.42659-1.68425,1.28974-3.37106,2.60367-1.22485.96951-2.46664,1.9459h0a2.33439,2.33439,0,0,0-.877,1.5348q-.68048,5.38965-1.1511,11.07244-.32321,4.10945-.54814,8.35914-.17911,3.96267-.30148,8.22211-.07751,3.03683-.137,6.22139-9.80571,8.689-17.43086,16.27979-5.10265,5.08368-9.23618,9.67468a38.56454,38.56454,0,0,0-.95924,10.68874q-.93418,1.23354-1.83628,2.60367a.92809.92809,0,0,1-.08221.08222q-4.13782,6.22333-4.13847,15.26572a28.16733,28.16733,0,0,0,4.13847,15.45757.12551.12551,0,0,0,.0274.05481q3.84588,6.08832,9.15395,6.934l1.5348.137q.03693.0001.05481,0h.02741q.11477.00181.24666,0a.11215.11215,0,0,0,.08222,0,.12683.12683,0,0,0,.08222,0q.92243.01444,2.6859-.05482H190.31093a.94824.94824,0,0,0,.52073-.10963,29.1877,29.1877,0,0,0,3.974-2.57626l.02741-.02741a52.25743,52.25743,0,0,0,15.15609-17.70494,74.87933,74.87933,0,0,0,7.56435-21.59674,93.00539,93.00539,0,0,0,1.5896-18.82863q-.01146-1.81359-.10963-3.64514l6.41325-4.577h0a2.24275,2.24275,0,0,0,.98665-1.617q.00054-.01563,0-.05481a2.05108,2.05108,0,0,0-.02741-.603q-.0003-.01937,0-.05481a10.18811,10.18811,0,0,0-.74-2.08293h0q-.32868-.72639-.65777-1.45258h0q-.26753-.67148-.57555-1.37035h0q-.4644-1.05026-.98664-2.02812-.52063-.93912-1.06888-1.86368-.3837-.66549-.79481-1.28813a31.861,31.861,0,0,0-4.05623-5.23475,25.63618,25.63618,0,0,0-2.27479-2.11033,21.228,21.228,0,0,0-7.0436-3.80958.17748.17748,0,0,1-.08223-.02741q-.08725-.00846-.19184-.02741a118.83488,118.83488,0,0,0-14.93684-2.22q-4.69335-.41763-10.1132-.60295l-.27407-4.60438a.25542.25542,0,0,0-.0274-.08222,2.04541,2.04541,0,0,0-.16444-.71259,1.95468,1.95468,0,0,0-.19185-.38369,2.37458,2.37458,0,0,0-.27407-.32889v-.02741q-.01071.00159-.02741-.0274a2.29659,2.29659,0,0,0-1.48-.74h0l-5.23475-.65777q-.128-1.42454-.35629-2.85033a42.4773,42.4773,0,0,0-1.34294-5.78289,49.6332,49.6332,0,0,0-1.617-4.82364l.0274-.0274q1.49368-.7812,2.98737-1.5622,4.83734-2.56256,9.64727-5.15253,5.56876-2.98191,11.15467-5.94732a.31609.31609,0,0,0,.10962.0274h.02741a18.47378,18.47378,0,0,0,2.02812.05482,14.45066,14.45066,0,0,0,4.63179-.95925q.02547.006.02741-.02741a2.16807,2.16807,0,0,1,.38369-.137.08286.08286,0,0,0,.05482-.05481h.02741l19.97972-8.551a.08259.08259,0,0,0,.08222-.02741,17.34408,17.34408,0,0,0,5.89251-3.59032,18.15916,18.15916,0,0,0,2.57627-2.93256v-.0274a.05927.05927,0,0,0,.05481-.0274,16.62,16.62,0,0,0,2.82293-8.9347,16.84527,16.84527,0,0,0-2.7133-9.83912v.02741a.29848.29848,0,0,0-.05481-.10964.45593.45593,0,0,0-.137-.16444,18.011,18.011,0,0,0-1.78145-2.27478q-.00365-.00481-.02741-.02741h-.02741m-12.16872-2.08293a13.60045,13.60045,0,0,1,9.64728,4.46734,16.8951,16.8951,0,0,1,1.617,2.02813h0a13.29076,13.29076,0,0,1,2.16515,7.86582,12.86783,12.86783,0,0,1-4.3303,9.45543,13.28558,13.28558,0,0,1-4.79623,2.90514h0a.06935.06935,0,0,1-.05482.0274.04176.04176,0,0,1-.02741.02741,13.94468,13.94468,0,0,1-5.01548.63036,13.46,13.46,0,0,1-6.934-2.19256q-.04872-.02257-.10963-.05482-.2202-.14964-.46591-.32888a1.35253,1.35253,0,0,0-.27407-.19184,15.8069,15.8069,0,0,1-1.89109-1.72666,15.33035,15.33035,0,0,1-1.64442-2.13774,13.15482,13.15482,0,0,1-1.67183-3.78217l.0274-.0274a16.30212,16.30212,0,0,1-.38369-2.87774q-.05022-1.37561-.02741-1.69924a9.63809,9.63809,0,0,0-1.23332,5.23474l-15.2109,10.41467a11.87743,11.87743,0,0,1-.24666-1.94589v-.02742a11.41238,11.41238,0,0,1,.02741-1.94589,10.161,10.161,0,0,1,.30147-1.58961l.02741-.02741v-.0274h.02741v-.05482q.00813.00183,0-.0274a11.7519,11.7519,0,0,1,.57554-1.50739,11.07424,11.07424,0,0,1,1.67183-2.46663q.11434-.12612.21926-.24667l3.75476-3.234q6.11927-5.26011,12.82649-10.5243l3.04218-2.30219a14.26016,14.26016,0,0,1,8.38656-2.11034M125.68515,76.26262h.0274l21.45971,2.87774-4.38513,3.04218q-.89693,1.16821-4.19327,12.08651l-12.22354-1.42517q.19046-.31539.35629-.63036a16.04669,16.04669,0,0,0,1.617-8.30434,14.12035,14.12035,0,0,0-3.04218-7.50952,1.17849,1.17849,0,0,1,.3837-.137m18.66418,11.45614a6.92723,6.92723,0,0,1,.02741-.90443q.01852-.20224.05482-.4111a4.72878,4.72878,0,0,1,2.16515-3.20663.35978.35978,0,0,0,.05482-.05481l38.041-26.393a15.30078,15.30078,0,0,0,0,1.83628v.0274a13.84147,13.84147,0,0,0,.41111,2.68589,12.12443,12.12443,0,0,0,1.23331,2.93256v.02741L144.78785,89.555q-.04647-.13961-.10963-.30147a6.15184,6.15184,0,0,1-.32889-1.5348M156.2988,71.52121q.44633.29774.877.603l-6.35844,4.46735L122.56074,72.6723a5.678,5.678,0,0,0-1.72664.41111,5.36855,5.36855,0,0,0-2.13775,1.67183,52.58612,52.58612,0,0,1,1.72664,7.48211q.2623,1.74636.41111,3.17922.12312,1.19.16444,2.16515.11263,1.78734.05482,4.2755.00374.15545,0,.30148H121.026l-12.33317-1.5622h-.137q-.10653-1.718-.30148-3.42588-.00652-.171-.02741-.35629-.14334-1.30655-.32888-2.60367-.15053-.99243-.32888-2.00071-.30824-1.71936-.71259-3.42588-.1334-.59887-.30148-1.20591a85.25862,85.25862,0,0,0-3.75476-11.67539q-.103-1.91219,2.08294-1.78146l51.41559,7.3999m8.5784,20.336a22.85382,22.85382,0,0,0-.32888-3.39847L168.632,86.2936q.10277.26337.19184.52073a37.08874,37.08874,0,0,1,1.64443,4.96068q.22225.86362.4111,1.754.09688.49086.19185,1.01407v.0274q.15331.78774.35629,2.65848.07752.59012.137,1.28814l-7.56434-.95925.21926-.74q.12225-.37236.21925-.76739a13.9396,13.9396,0,0,0,.27407-1.5348,1.19406,1.19406,0,0,0,.02741-.16444,18.66558,18.66558,0,0,0,.137-2.49405m-3.42588-1.754q.08179,1.02711.08223,1.9459a15.12961,15.12961,0,0,1-.16445,2.22.49226.49226,0,0,0,0,.05481v.02741q-.11122.64384-.24666,1.28813V95.612q-.06467.23455-.21926.74a.35318.35318,0,0,0-.05481.137l-.05481.21926q-.04968.13169-.137.35629.0001.03907,0,.08223l-9.01691-1.17851.0274-.30148a4.54283,4.54283,0,0,0,.137-.52073l9.64727-5.04289M207.11144,112.111a17.27422,17.27422,0,0,1,4.87845,2.46663,25.18738,25.18738,0,0,1,6.55028,7.18065,51.72624,51.72624,0,0,1,3.4807,6.41324l-28.22925-2.71329a19.153,19.153,0,0,0-5.34437-10.8806,24.505,24.505,0,0,0-7.50952-5.04289q-.23-.0987-.49333-.21925a2.57438,2.57438,0,0,1-.32888-.137q.17183.01809.32888.02741.04122-.00117.05481,0h.137q.23938.00963.46592,0,16.42837.74267,26.00927,2.90514M178.8,102.65559l.137,2.90515-4.24809-.10963a3.11928,3.11928,0,0,0-2.68589,1.37036v-.02741l-2.30219,2.79552-31.1892-3.20663h-.02741a.142.142,0,0,0-.02741-.02741,3.435,3.435,0,0,0-.24666-.27407l-.10963-.10962a22.03609,22.03609,0,0,0-2.08293-1.83627q-.856-.665-1.80887-1.28813a29.66828,29.66828,0,0,0-3.5355-2.00071.34221.34221,0,0,0-.16445-.05482,40.65479,40.65479,0,0,0-9.64727-2.494q-1.38438-.2184-2.90515-.3837h0q-2.36408-.30222-5.01549-.49332h-.10962q-1.0434-.08769-2.54886-.19186-1.24049-.08328-2.79552-.19185l.05482-3.04217L178.8,102.65559m-9.3458,10.52431a31.3587,31.3587,0,0,1,3.974,1.39775,22.0102,22.0102,0,0,1,8.30433,6.00215l-.02741-.02741q4.37656,5.47905,3.53551,14.38869l-45.38605-4.13846q-.01457-1.36917-.05481-2.7407l5.78288-5.61844a1.0939,1.0939,0,0,0,.32889-.57555l.0274-.137q.00246-.075,0-.16444a1.03576,1.03576,0,0,0,0-.137.50025.50025,0,0,0-.0274-.137,32.52722,32.52722,0,0,0-.877-3.34366q-.18-.535-.3837-1.06887a29.74374,29.74374,0,0,0-3.26143-6.41325l28.0648,2.7133m21.37748,27.27q.10161-3.16563-.10962-6.35844l24.36485,2.22q.21123,2.0583.27407,4.13846a5.53774,5.53774,0,0,1,.0274.63036h0q.03651.76675.02741,1.50738l-7.83841-.49332a.73142.73142,0,0,0-.43851.137.66965.66965,0,0,0-.19185.41111q-.02023.13713-.02741.27407h0q-.08906,1.26747-.19184,2.52144a.60557.60557,0,0,0,.16443.46593.55477.55477,0,0,0,.41111.21925l8.05767.52074a77.64089,77.64089,0,0,1-1.45257,12.36057q-.04722-.01092-.10963-.02741l-8.688-.49333a.73531.73531,0,0,0-.41111.137.685.685,0,0,0-.24666.32888q-.06883.31529-.137.603-.00642.02911-.02741.02741-.2549,1.0829-.54814,2.13775a.56036.56036,0,0,0,.02741.32888h-.02741a.6708.6708,0,0,0,.21927.30148.56538.56538,0,0,0,.35628.137l8.66063.49333a68.3996,68.3996,0,0,1-3.837,11.12725.923.923,0,0,0-.19185-.0274l-8.96209-.43852a.78457.78457,0,0,0-.3563.08222.73521.73521,0,0,0-.24666.27408q-.11938.27611-.24666.54814v.0274a.69557.69557,0,0,0-.10963.21926v.02741a1.90354,1.90354,0,0,1-.10963.19185h0q-.40425.84962-.82221,1.69923a.70165.70165,0,0,0-.05482.41111.60585.60585,0,0,0,.21926.32888h0a.544.544,0,0,0,.35629.16444l8.63322.41111-.43851.877q-.9372,1.7488-1.97331,3.45329a49.02251,49.02251,0,0,1-4.13846,5.81029.61841.61841,0,0,0-.38371-.16444l-8.85246-.137a1.05223,1.05223,0,0,0-.27407.05482.767.767,0,0,0-.21926.19185q-.73988.95227-1.53479,1.89108l-.05482.05482-.0274.0274q-.31743.36892-.65778.74a.62947.62947,0,0,0,.02741.877.65276.65276,0,0,0,.43852.16444l7.97545.10963a47.015,47.015,0,0,1-7.20806,5.72807h-23.7619l3.64514-3.28884,3.7-4.00143a59.917,59.917,0,0,0,8.35914-12.82649q.334-.688.65777-1.39776a77.85685,77.85685,0,0,0,5.34437-14.93683q.19518-.75027.3837-1.5348a94.21071,94.21071,0,0,0,2.57626-18.99307q.00483-.13008,0-.27407m-62.67988-36.78024q1.03161.36015,1.9459.74.93291.57855,1.78146,1.20591a23.67153,23.67153,0,0,1,2.494,2.05553,22.49,22.49,0,0,1,1.91849,2.02811,21.86407,21.86407,0,0,1,1.42516,1.86368h0a30.22886,30.22886,0,0,1,2.76811,4.851q.35362.7674.65777,1.53479.40512,1.05186.877,2.63108l-35.16323-3.06959q-2.418-8.21772-7.26286-11.83984a13.88564,13.88564,0,0,0-3.234-1.80886q-2.12213.53337-4.63179,1.37035Q81.18126,108.767,63.99191,117.94872q-2.78567,1.50183-5.75548,3.1244,2.22147-1.60352,4.38513-3.1244A147.84309,147.84309,0,0,1,85.205,104.93038q4.44047-1.98444,8.71543-3.45329,2.2082-.75507,4.35772-1.37035,1.96335.13887,3.86439.27407,2.15777.15032,4.24809.30148,3.13468.20985,6.16659.41111.1836.01488.35629.02741.68185.0364,1.37035.08221,3.53808.25556,6.55028.74a43.97414,43.97414,0,0,1,7.31768,1.72664m.27407,33.43658a.75056.75056,0,0,0-.21926.46592l-.16444,2.79551a.51071.51071,0,0,0,0,.08223.60239.60239,0,0,0,.16444.4111.62564.62564,0,0,0,.46592.24667l8.52359.54814a103.02563,103.02563,0,0,1-1.343,12.77167.13333.13333,0,0,1-.08222,0l-8.27692-.49332a.79352.79352,0,0,0-.46592.137.70663.70663,0,0,0-.24666.41111l-.54814,2.76811a.56243.56243,0,0,0,.0274.35629.71916.71916,0,0,0,.21926.32888.6898.6898,0,0,0,.3837.137l8.24952.49333q-.23853,1.05837-.46592,2.11034a67.9942,67.9942,0,0,1-3.12441,10.55171.46639.46639,0,0,0-.19185-.02741l-8.66062-.43851a.89656.89656,0,0,0-.4111.10962.86212.86212,0,0,0-.27407.32889l-1.17851,2.7133a.67979.67979,0,0,0-.0274.43851.70752.70752,0,0,0,.21925.3837.64186.64186,0,0,0,.41111.137l8.46877.43851q-.11712.23232-.24666.46592-1.28675,2.8164-2.82293,5.56363a46.128,46.128,0,0,1-3.7,5.591.60688.60688,0,0,0-.4111-.137l-8.90729-.16444a.96744.96744,0,0,0-.30147.08222.92227.92227,0,0,0-.24667.19185l-2.19256,2.7407a.65591.65591,0,0,0-.16444.46592.67628.67628,0,0,0,.21925.46592.62857.62857,0,0,0,.46592.19185l8.00286.10963a32.26881,32.26881,0,0,1-3.75477,3.234,36.77381,36.77381,0,0,1-5.94732,3.59032H79.99762a51.516,51.516,0,0,0,13.07316-13.48426,79.501,79.501,0,0,0,10.168-21.29527q.42256-1.29069.79481-2.60367a101.73542,101.73542,0,0,0,3.42588-19.87009q.032-.34227.05481-.68518.12826-1.93584.21926-3.8918.21315-4.49133.21925-9.04432l29.35294,1.89108v8.77025l-8.35915-.54814a.76418.76418,0,0,0-.52073.16445m-102.99563,45.249a17.1353,17.1353,0,0,0,.60295,2.63108l-3.837-.137q.20943.74577.46593,1.42517l3.89179.10962a14.59719,14.59719,0,0,0,.90444,1.75406,8.4759,8.4759,0,0,0,4.00143,3.78217,7.35215,7.35215,0,0,1-4.851-.24667,6.52954,6.52954,0,0,0,6.57769.65777,7.287,7.287,0,0,0,.68517-.3837,5.9122,5.9122,0,0,0,.54814-.3837,11.27215,11.27215,0,0,0,2.65849-2.79551,18.81017,18.81017,0,0,0,3.28884-10.14061h0a17.5746,17.5746,0,0,0-2.19256-10.168,8.6702,8.6702,0,0,0-3.80958-3.64514l2.63107-1.86368a9.81317,9.81317,0,0,1,1.37035,1.20591l.10963.10963a14.283,14.283,0,0,1,1.67183,2.24738,20.80326,20.80326,0,0,1,2.7407,12.25094,24.59568,24.59568,0,0,1-1.64442,7.811,18.94647,18.94647,0,0,1-1.39776,2.87774q-.28809.5019-.60295.95925a6.28186,6.28186,0,0,1-.4111.57555q-3.592,5.0341-8.30434,5.0703H30.4457q-4.35568.00663-7.34508-4.24809-.24486-.3867-.49333-.82221a19.2908,19.2908,0,0,1-2.68589-8.49618q-.03157-.67329-.05481-1.37036-.02215-1.148.02741-2.357a29.05677,29.05677,0,0,1,.52073-4.11106.13439.13439,0,0,0,0-.05481l2.19256-1.53479a22.038,22.038,0,0,0-.95925,5.56362q-.06242,1.17165-.0274,2.27479.04024.68431.10963,1.34294l3.69995.10963m71.53235-61.58361q.2303.3625.43852.74a29.97855,29.97855,0,0,1,4.22068,14.36128q.07986,1.2845.05481,2.60367.00931.97328-.05481,1.97331h0a38.00066,38.00066,0,0,1-2.52145,12.1139,30.173,30.173,0,0,1-2.16515,4.46735q-.459.774-.95925,1.50739-.28648.44451-.603.877-.3276.46645-.68518.90443-5.33634,6.888-12.19613,6.96139H82.382q-6.75979-.008-11.37392-6.6325-.10224-.15546-.21925-.32889-.29742-.43787-.603-.90443a29.867,29.867,0,0,1-4.08364-13.18278q-.09594-1.03675-.137-2.13775-.02207-.72992-.02741-1.50739l2.82293-1.9733q-.06574,1.66711,0,3.234.04967,1.04072.16444,2.02812l5.67326.19185a27.23672,27.23672,0,0,0,.93183,4.02883l-5.89251-.19185q.30972,1.13975.68518,2.19256l6.00214.19185a24.43025,24.43025,0,0,0,1.37035,2.68589A13.906,13.906,0,0,0,82.93017,160.32a8.09335,8.09335,0,0,0,.98666.43852q-4.66713,1.03365-7.50953-.35629,4.35246,3.19752,10.08579.98665h.02741a8.45712,8.45712,0,0,0,1.04146-.57555,8.76008,8.76008,0,0,0,.7674-.49333.231.231,0,0,0,.08222-.08222,17.85222,17.85222,0,0,0,4.11105-4.3029,29.0203,29.0203,0,0,0,5.0429-15.485.78862.78862,0,0,1,0-.08223v-.0274q.06145-1.01.05481-2.00072.01125-1.25343-.08222-2.46663a24.8452,24.8452,0,0,0-3.37106-11.15466q-.41732-.7067-.877-1.343l3.67254-2.60367M59.19568,165.49993a5.94624,5.94624,0,0,0,.93184.7948l-6.65991,3.28884-.43851-2.76811,4.85105-2.98736a.2548.2548,0,0,1,.05481.05481l.08222-.05481a6.89418,6.89418,0,0,0,.71258,1.15109l.46592.52074m19.34937,8.24951.08222.08222a9.21482,9.21482,0,0,1,1.12369,1.64443,14.429,14.429,0,0,1,1.617,8.11248q-.02965.46623-.08222.93184a19.02975,19.02975,0,0,1-1.50739,5.78288,14.8484,14.8484,0,0,1-1.1785,2.13775,6.14,6.14,0,0,1-.49333.71258,3.54261,3.54261,0,0,1-.30147.41111q-.178.23981-.35629.43851-2.73011,3.29719-6.00214,3.31625a.0573.0573,0,0,1-.05482,0,6.073,6.073,0,0,1-5.26215-3.15181q-.03405-.0745-.08222-.16444-.12493-.19871-.24666-.43851a13.51694,13.51694,0,0,1-1.617-6.27621q-.02045-.4914-.02741-1.01406.04433-.84748.137-1.75405.05845-.4655.10963-.93184.17589-1.07487.43851-2.08294a16.81542,16.81542,0,0,1,2.93255-6.02954A9.65525,9.65525,0,0,1,71.94,172.15983q.72629-.14207,1.58961-.35629.32578-.03725.65777-.05481a5.70042,5.70042,0,0,1,4.35772,2.00071m-32.77882-8.93469q-.50359-.7705-1.04146-1.45257a13.339,13.339,0,0,0-3.64514-3.28885l19.84269-13.95018a26.0679,26.0679,0,0,0,1.09629,7.75619q-3.39581,2.25423-9.59246,6.44065-2.99658,2.02856-6.65992,4.49476m11.648,13.48426a8.59383,8.59383,0,0,1,.95925,1.37035,11.92492,11.92492,0,0,1,1.45257,6.6051q-.01819.37834-.05481.76739a14.84322,14.84322,0,0,1-1.1511,4.68661,10.44115,10.44115,0,0,1-.90443,1.754,6.751,6.751,0,0,1-.3837.603q-.12023.1668-.24666.32889-.13671.19045-.27407.35629a6.28449,6.28449,0,0,1-4.85105,2.71329h-.0274a5.11089,5.11089,0,0,1-4.35772-2.57626.80117.80117,0,0,0-.08222-.137q-.09025-.16584-.19185-.35629a11.23683,11.23683,0,0,1-1.42517-5.12512q-.02463-.39719-.0274-.82221.00375-.69417.05481-1.42517.04637-.38894.08222-.76739.12279-.87681.30148-1.69924a13.43686,13.43686,0,0,1,2.30219-4.90586,7.76027,7.76027,0,0,1,3.34366-2.7407q.58881-.10074,1.28813-.27407a5.08931,5.08931,0,0,1,.52073-.02741,4.68975,4.68975,0,0,1,3.59032,1.617q.048.03437.08222.05481m-3.94661,1.12369q-.1548-.00814-.32889-.02741a4.71245,4.71245,0,0,0-3.7,2.24738,10.02591,10.02591,0,0,0-.95924,1.58961,11.57239,11.57239,0,0,0-.877,3.06958q-.02957.33681-.05482.68518-.05729.62094-.05481,1.20591.002.35629.0274.68518l1.9459.05481a9.68529,9.68529,0,0,0,.27407,1.39776l-2.02812-.05482q.10011.387.21926.74l2.05552.05482a6.43341,6.43341,0,0,0,.43852.93184,4.47354,4.47354,0,0,0,1.754,1.83627,1.37822,1.37822,0,0,0,.30148.137,2.40632,2.40632,0,0,1-.32888.08222,3.54542,3.54542,0,0,1-2.22-.19184,3.37246,3.37246,0,0,0,3.45328.32888,2.39706,2.39706,0,0,0,.35629-.19185,2.2797,2.2797,0,0,0,.27407-.16444q.01371.0001.02741-.02741a6.38579,6.38579,0,0,0,1.45257-1.48,10.28583,10.28583,0,0,0,1.91849-5.34437q.03-.34838.02741-.68518a8.58993,8.58993,0,0,0-1.01406-4.65919,4.10372,4.10372,0,0,0-2.38441-2.11034,3.92654,3.92654,0,0,0-.57555-.10963M73.77623,175.202q-.20889-.01671-.43852-.02741-2.50068.01434-4.577,2.7407a12.31971,12.31971,0,0,0-1.20591,1.9459,13.97611,13.97611,0,0,0-1.1511,3.75476q-.05877.42461-.10963.84962-.0714.76194-.08222,1.48-.01434.43317,0,.84962l2.38441.05481a12.02258,12.02258,0,0,0,.30148,1.72665l-2.46663-.08222q.10309.47159.21926.90443l2.52144.08222a11.19654,11.19654,0,0,0,.52073,1.12369,5.54438,5.54438,0,0,0,2.11035,2.27478,3.40724,3.40724,0,0,0,.3837.16444q-.20288.04455-.41111.08222a4.47647,4.47647,0,0,1-2.7407-.21925,4.15634,4.15634,0,0,0,4.22068.4111,3.83,3.83,0,0,0,.46592-.27407,2.59756,2.59756,0,0,0,.32889-.16444.10476.10476,0,0,0,.0274-.05481,7.95187,7.95187,0,0,0,1.83627-1.80887,12.87112,12.87112,0,0,0,2.494-6.55028q.03907-.425.05482-.84962a10.40134,10.40134,0,0,0-1.1511-5.70066,4.79908,4.79908,0,0,0-2.82292-2.57626,5.22618,5.22618,0,0,0-.71258-.137m85.15365-45.27643h.0274a1.612,1.612,0,0,0,.49333-1.23331,1.58541,1.58541,0,0,0-.52073-1.20591h.0274a1.68847,1.68847,0,0,0-2.43922,0,1.65189,1.65189,0,0,0-.52074,1.20591,1.63388,1.63388,0,0,0,.52074,1.23331h0a1.653,1.653,0,0,0,1.20591.52074,1.56334,1.56334,0,0,0,1.20591-.52074M147.09,126.25305a1.70247,1.70247,0,0,0-1.23332-.52073,1.74229,1.74229,0,0,0-1.20591.52073,1.79036,1.79036,0,0,0-.52073,1.23332,1.734,1.734,0,0,0,.52073,1.23331v-.0274a1.72018,1.72018,0,0,0,2.43923.0274v-.0274a1.54642,1.54642,0,0,0,.52073-1.20591,1.644,1.644,0,0,0-.52073-1.23332m23.70708,2.41183a1.62127,1.62127,0,0,0-1.20591-.52075,1.7785,1.7785,0,0,0-1.754,1.75406,1.62126,1.62126,0,0,0,.52074,1.20591,1.6635,1.6635,0,0,0,1.23331.52073,1.5909,1.5909,0,0,0,1.20591-.52073h0a1.57667,1.57667,0,0,0,.52074-1.20591,1.69826,1.69826,0,0,0-.52074-1.23331h0m10.66134,1.12368h.02741a1.71769,1.71769,0,0,0-1.23332-.52074,1.8069,1.8069,0,0,0-1.23332.52074,1.74229,1.74229,0,0,0-.52073,1.20591,1.78159,1.78159,0,0,0,.52073,1.26072v-.0274a1.65746,1.65746,0,0,0,1.23332.52073,1.541,1.541,0,0,0,1.20591-.49333l.02741-.0274a1.72021,1.72021,0,0,0-.02741-2.43923m-68.65462-41.7135a1.92831,1.92831,0,0,0,.16444.76739,1.95182,1.95182,0,0,0,.32889.43851,1.23821,1.23821,0,0,0,.137.137,1.3101,1.3101,0,0,0,.21926.16444,1.34173,1.34173,0,0,0,.74.19185,1.41337,1.41337,0,0,0,1.09628-.54814,1.65384,1.65384,0,0,0,.4111-1.20591,1.78873,1.78873,0,0,0-.49332-1.23332,1.39629,1.39629,0,0,0-1.09628-.49332,1.53526,1.53526,0,0,0-.71259.21925,1.96131,1.96131,0,0,0-.3837.30148,1.87757,1.87757,0,0,0-.4111,1.26073m-2.27478-20.55528a1.41363,1.41363,0,0,0-1.06888.52073,1.86636,1.86636,0,0,0,.05482,2.46664,1.378,1.378,0,0,0,1.09628.46592,1.02317,1.02317,0,0,0,.46592-.08223,1.21553,1.21553,0,0,0,.63036-.43851,1.571,1.571,0,0,0,.4111-1.09628.296.296,0,0,0,0-.137,1.71314,1.71314,0,0,0-.46592-1.20591,1.4225,1.4225,0,0,0-1.12368-.49332m3.5081,9.291v.02741a1.50423,1.50423,0,0,0-.98666-.38369,1.47826,1.47826,0,0,0-.93184.4111,1.06062,1.06062,0,0,1-.137.137,1.8763,1.8763,0,0,0-.43851,1.23331.12489.12489,0,0,1,0,.08222,1.87436,1.87436,0,0,0,.49332,1.1511,1.4199,1.4199,0,0,0,1.12369.46591.90844.90844,0,0,0,.21926,0,1.38633,1.38633,0,0,0,.84962-.52073h0a1.7,1.7,0,0,0,.43851-1.23331,1.764,1.764,0,0,0-.49333-1.20591q-.06456-.0819-.137-.16445m108.09334-41.412q-.34956-.14848-.71259-.27407a11.47267,11.47267,0,0,0-3.097-.54814,10.73068,10.73068,0,0,0-8.03026,2.90514,10.57784,10.57784,0,0,0-3.5081,7.72879,11.171,11.171,0,0,0,.32888,3.15181v.0274a10.56037,10.56037,0,0,0,1.37036,3.12441.31774.31774,0,0,1,.0274.05481.34819.34819,0,0,1,.05481.0548,12.47373,12.47373,0,0,0,1.23332,1.56221v.02741q.22569.226.43851.43851l.02741.0274a11.57065,11.57065,0,0,0,2.57626,1.89109h0a10.91437,10.91437,0,0,0,4.76882,1.26072h.02741a10.60574,10.60574,0,0,0,8.03026-2.90514,7.48768,7.48768,0,0,0,2.494-3.5081l-13.07315,3.837a8.38579,8.38579,0,0,1-2.05552-1.06888l16.17014-7.64655q.04669.17055.02741-.32889a4.975,4.975,0,0,0-.90443-3.28885l-16.93755,9.78432a8.62069,8.62069,0,0,1-1.86368-3.37108l12.49761-11.56576a5.988,5.988,0,0,1,2.76811.63036q.20352.09262.41111.19186A8.80929,8.80929,0,0,0,222.1305,35.39874Z"/><path class="c" d="M58.37347,179.66936a8.59383,8.59383,0,0,0-.95925-1.37035q-.03426-.02044-.08222-.05481a4.68975,4.68975,0,0,0-3.59032-1.617,5.08931,5.08931,0,0,0-.52073.02741q-.69932.17332-1.28813.27407a7.76027,7.76027,0,0,0-3.34366,2.7407,13.43686,13.43686,0,0,0-2.30219,4.90586q-.17868.82242-.30148,1.69924-.03587.37845-.08222.76739-.05106.731-.05481,1.42517.00277.425.0274.82221a11.23683,11.23683,0,0,0,1.42517,5.12512q.1016.19045.19185.35629a.80117.80117,0,0,1,.08222.137,5.11089,5.11089,0,0,0,4.35772,2.57626h.0274a6.28449,6.28449,0,0,0,4.85105-2.71329q.13735-.16584.27407-.35629.12643-.16209.24666-.32889a6.751,6.751,0,0,0,.3837-.603,10.44115,10.44115,0,0,0,.90443-1.754,14.84322,14.84322,0,0,0,1.1511-4.68661q.03661-.389.05481-.76739a11.92492,11.92492,0,0,0-1.45257-6.6051m-5.23475-.27407q.17408.01928.32889.02741a3.92654,3.92654,0,0,1,.57555.10963,4.10372,4.10372,0,0,1,2.38441,2.11034,8.58993,8.58993,0,0,1,1.01406,4.65919q.00256.33681-.02741.68518a10.28583,10.28583,0,0,1-1.91849,5.34437,6.38579,6.38579,0,0,1-1.45257,1.48q-.01371.02751-.02741.02741a2.2797,2.2797,0,0,1-.27407.16444,2.39706,2.39706,0,0,1-.35629.19185,3.37246,3.37246,0,0,1-3.45328-.32888,3.54542,3.54542,0,0,0,2.22.19184,2.40632,2.40632,0,0,0,.32888-.08222,1.37822,1.37822,0,0,1-.30148-.137,4.47354,4.47354,0,0,1-1.754-1.83627,6.43341,6.43341,0,0,1-.43852-.93184l-2.05552-.05482q-.11916-.353-.21926-.74l2.02812.05482a9.68529,9.68529,0,0,1-.27407-1.39776l-1.9459-.05481q-.02537-.32889-.0274-.68518-.00247-.585.05481-1.20591.02527-.34838.05482-.68518a11.57239,11.57239,0,0,1,.877-3.06958,10.02591,10.02591,0,0,1,.95924-1.58961,4.71245,4.71245,0,0,1,3.7-2.24738m-8.41395-16.03311q.53786.68206,1.04146,1.45257,3.66334-2.46621,6.65992-4.49476,6.19667-4.18641,9.59246-6.44065a26.0679,26.0679,0,0,1-1.09629-7.75619L41.07963,160.07333a13.339,13.339,0,0,1,3.64514,3.28885m33.9025,10.46948-.08222-.08222a5.70042,5.70042,0,0,0-4.35772-2.00071q-.332.01755-.65777.05481-.86333.21423-1.58961.35629a9.65525,9.65525,0,0,0-4.16587,3.31626,16.81542,16.81542,0,0,0-2.93255,6.02954q-.26261,1.00808-.43851,2.08294-.05118.46635-.10963.93184-.09272.90657-.137,1.75405.007.52266.02741,1.01406a13.51694,13.51694,0,0,0,1.617,6.27621q.12172.23981.24666.43851.04817.08992.08222.16444a6.073,6.073,0,0,0,5.26215,3.15181.0573.0573,0,0,0,.05482,0q3.272-.019,6.00214-3.31625.17825-.19871.35629-.43851a3.54261,3.54261,0,0,0,.30147-.41111,6.14,6.14,0,0,0,.49333-.71258,14.8484,14.8484,0,0,0,1.1785-2.13775,19.02975,19.02975,0,0,0,1.50739-5.78288q.05258-.4656.08222-.93184a14.429,14.429,0,0,0-1.617-8.11248,9.21482,9.21482,0,0,0-1.12369-1.64443m-5.28956,1.343q.22963.01071.43852.02741a5.22618,5.22618,0,0,1,.71258.137,4.79908,4.79908,0,0,1,2.82292,2.57626,10.40134,10.40134,0,0,1,1.1511,5.70066q-.01573.42461-.05482.84962a12.87112,12.87112,0,0,1-2.494,6.55028,7.95187,7.95187,0,0,1-1.83627,1.80887.10476.10476,0,0,1-.0274.05481,2.59756,2.59756,0,0,1-.32889.16444,3.83,3.83,0,0,1-.46592.27407,4.15634,4.15634,0,0,1-4.22068-.4111,4.47647,4.47647,0,0,0,2.7407.21925q.20823-.03768.41111-.08222a3.40724,3.40724,0,0,1-.3837-.16444,5.54438,5.54438,0,0,1-2.11035-2.27478,11.19654,11.19654,0,0,1-.52073-1.12369l-2.52144-.08222q-.11616-.43284-.21926-.90443l2.46663.08222a12.02258,12.02258,0,0,1-.30148-1.72665l-2.38441-.05481q-.01434-.41646,0-.84962.01081-.718.08222-1.48.05087-.425.10963-.84962a13.97611,13.97611,0,0,1,1.1511-3.75476,12.31971,12.31971,0,0,1,1.20591-1.9459q2.0763-2.72636,4.577-2.7407m-13.21019-8.87988a5.94624,5.94624,0,0,1-.93184-.7948l-.46592-.52074a6.89418,6.89418,0,0,1-.71258-1.15109l-.08222.05481a.2548.2548,0,0,0-.05481-.05481l-4.85105,2.98736.43851,2.76811,6.65991-3.28884m37.27357-44.78309q-.20823-.37751-.43852-.74L93.29,123.37531q.45972.63626.877,1.343a24.8452,24.8452,0,0,1,3.37106,11.15466q.09346,1.2132.08222,2.46663.00664.99074-.05481,2.00072v.0274a.78862.78862,0,0,0,0,.08223,29.0203,29.0203,0,0,1-5.0429,15.485,17.85222,17.85222,0,0,1-4.11105,4.3029.231.231,0,0,1-.08222.08222,8.76008,8.76008,0,0,1-.7674.49333,8.45712,8.45712,0,0,1-1.04146.57555h-.02741q-5.73332,2.21086-10.08579-.98665,2.84241,1.38994,7.50953.35629a8.09335,8.09335,0,0,1-.98666-.43852,13.906,13.906,0,0,1-5.23474-5.34437,24.43025,24.43025,0,0,1-1.37035-2.68589l-6.00214-.19185q-.37547-1.05281-.68518-2.19256l5.89251.19185a27.23672,27.23672,0,0,1-.93183-4.02883l-5.67326-.19185q-.11476-.9874-.16444-2.02812-.06574-1.56691,0-3.234l-2.82293,1.9733q.00535.77748.02741,1.50739.04112,1.101.137,2.13775a29.867,29.867,0,0,0,4.08364,13.18278q.30555.46658.603.90443.117.17345.21925.32889,4.61412,6.62447,11.37392,6.6325h.10963q6.85979-.07344,12.19613-6.96139.35759-.438.68518-.90443.31646-.43251.603-.877.50028-.73336.95925-1.50739a30.173,30.173,0,0,0,2.16515-4.46735,38.00066,38.00066,0,0,0,2.52145-12.1139h0q.06412-1,.05481-1.97331.025-1.31917-.05481-2.60367a29.97855,29.97855,0,0,0-4.22068-14.36128M26.03317,184.98633a17.1353,17.1353,0,0,1-.60295-2.63108l-3.69995-.10963q-.06938-.65862-.10963-1.34294-.035-1.10313.0274-2.27479a22.038,22.038,0,0,1,.95925-5.56362l-2.19256,1.53479a.13439.13439,0,0,1,0,.05481,29.05677,29.05677,0,0,0-.52073,4.11106q-.04957,1.209-.02741,2.357.02323.69706.05481,1.37036a19.2908,19.2908,0,0,0,2.68589,8.49618q.24849.43551.49333.82221,2.98938,4.25472,7.34508,4.24809h.08222q4.71229-.0362,8.30434-5.0703a6.28186,6.28186,0,0,0,.4111-.57555q.31485-.45735.60295-.95925a18.94647,18.94647,0,0,0,1.39776-2.87774,24.59568,24.59568,0,0,0,1.64442-7.811,20.80326,20.80326,0,0,0-2.7407-12.25094,14.283,14.283,0,0,0-1.67183-2.24738l-.10963-.10963a9.81317,9.81317,0,0,0-1.37035-1.20591l-2.63107,1.86368a8.6702,8.6702,0,0,1,3.80958,3.64514,17.5746,17.5746,0,0,1,2.19256,10.168h0a18.81017,18.81017,0,0,1-3.28884,10.14061,11.27215,11.27215,0,0,1-2.65849,2.79551,5.9122,5.9122,0,0,1-.54814.3837,7.287,7.287,0,0,1-.68517.3837,6.52954,6.52954,0,0,1-6.57769-.65777,7.35215,7.35215,0,0,0,4.851.24667,8.4759,8.4759,0,0,1-4.00143-3.78217,14.59719,14.59719,0,0,1-.90444-1.75406l-3.89179-.10962q-.25652-.6794-.46593-1.42517l3.837.137m102.17342-47.41417a.75056.75056,0,0,1,.21926-.46592.76418.76418,0,0,1,.52073-.16445l8.35915.54814v-8.77025l-29.35294-1.89108q-.00609,4.553-.21925,9.04432-.091,1.956-.21926,3.8918-.0228.34291-.05481.68518A101.73542,101.73542,0,0,1,104.03359,160.32q-.37224,1.313-.79481,2.60367a79.501,79.501,0,0,1-10.168,21.29527,51.516,51.516,0,0,1-13.07316,13.48426h29.87367a36.77381,36.77381,0,0,0,5.94732-3.59032,32.26881,32.26881,0,0,0,3.75477-3.234l-8.00286-.10963a.62857.62857,0,0,1-.46592-.19185.67628.67628,0,0,1-.21925-.46592.65591.65591,0,0,1,.16444-.46592l2.19256-2.7407a.92227.92227,0,0,1,.24667-.19185.96744.96744,0,0,1,.30147-.08222l8.90729.16444a.60688.60688,0,0,1,.4111.137,46.128,46.128,0,0,0,3.7-5.591q1.53619-2.74724,2.82293-5.56363.12954-.2336.24666-.46592l-8.46877-.43851a.64186.64186,0,0,1-.41111-.137.70752.70752,0,0,1-.21925-.3837.67979.67979,0,0,1,.0274-.43851l1.17851-2.7133a.86212.86212,0,0,1,.27407-.32889.89656.89656,0,0,1,.4111-.10962l8.66062.43851a.46639.46639,0,0,1,.19185.02741,67.9942,67.9942,0,0,0,3.12441-10.55171q.22738-1.052.46592-2.11034l-8.24952-.49333a.6898.6898,0,0,1-.3837-.137.71916.71916,0,0,1-.21926-.32888.56243.56243,0,0,1-.0274-.35629l.54814-2.76811a.70663.70663,0,0,1,.24666-.41111.79352.79352,0,0,1,.46592-.137l8.27692.49332a.13333.13333,0,0,0,.08222,0,103.02563,103.02563,0,0,0,1.343-12.77167l-8.52359-.54814a.62564.62564,0,0,1-.46592-.24667.60239.60239,0,0,1-.16444-.4111.51071.51071,0,0,1,0-.08223l.16444-2.79551m1.89109-33.16251q-.91428-.37986-1.9459-.74a43.97414,43.97414,0,0,0-7.31768-1.72664q-3.01221-.48444-6.55028-.74-.6885-.04581-1.37035-.08221-.1727-.01254-.35629-.02741-3.03191-.20127-6.16659-.41111-2.09033-.15117-4.24809-.30148-1.901-.13521-3.86439-.27407-2.14951.61527-4.35772,1.37035-4.275,1.46885-8.71543,3.45329a147.84309,147.84309,0,0,0-22.5834,13.01834q-2.16366,1.52088-4.38513,3.1244,2.96982-1.62258,5.75548-3.1244,17.18934-9.18168,27.73592-12.71686,2.50967-.837,4.63179-1.37035a13.88564,13.88564,0,0,1,3.234,1.80886q4.84483,3.62212,7.26286,11.83984l35.16323,3.06959q-.47192-1.57922-.877-2.63108-.30415-.7674-.65777-1.53479a30.22886,30.22886,0,0,0-2.76811-4.851h0a21.86407,21.86407,0,0,0-1.42516-1.86368,22.49,22.49,0,0,0-1.91849-2.02811,23.67153,23.67153,0,0,0-2.494-2.05553q-.84855-.62736-1.78146-1.20591M190.722,134.09146q.21122,3.19282.10962,6.35844.00483.144,0,.27407A94.21071,94.21071,0,0,1,188.2554,159.717q-.18852.78453-.3837,1.5348a77.85685,77.85685,0,0,1-5.34437,14.93683q-.32375.7098-.65777,1.39776a59.917,59.917,0,0,1-8.35914,12.82649l-3.7,4.00143-3.64514,3.28884h23.7619a47.015,47.015,0,0,0,7.20806-5.72807l-7.97545-.10963a.65276.65276,0,0,1-.43852-.16444.62947.62947,0,0,1-.02741-.877q.34035-.37105.65778-.74l.0274-.0274.05482-.05482q.79491-.93879,1.53479-1.89108a.767.767,0,0,1,.21926-.19185,1.05223,1.05223,0,0,1,.27407-.05482l8.85246.137a.61841.61841,0,0,1,.38371.16444,49.02251,49.02251,0,0,0,4.13846-5.81029q1.03611-1.70448,1.97331-3.45329l.43851-.877-8.63322-.41111a.544.544,0,0,1-.35629-.16444h0a.60585.60585,0,0,1-.21926-.32888.70165.70165,0,0,1,.05482-.41111q.418-.84961.82221-1.69923h0a1.90354,1.90354,0,0,0,.10963-.19185v-.02741a.69557.69557,0,0,1,.10963-.21926v-.0274q.12729-.272.24666-.54814a.73521.73521,0,0,1,.24666-.27408.78457.78457,0,0,1,.3563-.08222l8.96209.43852a.923.923,0,0,1,.19185.0274,68.3996,68.3996,0,0,0,3.837-11.12725l-8.66063-.49333a.56538.56538,0,0,1-.35628-.137.6708.6708,0,0,1-.21927-.30148h.02741a.56036.56036,0,0,1-.02741-.32888q.29323-1.05486.54814-2.13775.021.00171.02741-.02741.0682-.28767.137-.603a.685.685,0,0,1,.24666-.32888.73531.73531,0,0,1,.41111-.137l8.688.49333q.06242.01649.10963.02741a77.64089,77.64089,0,0,0,1.45257-12.36057l-8.05767-.52074a.55477.55477,0,0,1-.41111-.21925.60557.60557,0,0,1-.16443-.46593q.10277-1.254.19184-2.52144h0q.00719-.13693.02741-.27407a.66965.66965,0,0,1,.19185-.41111.73142.73142,0,0,1,.43851-.137l7.83841.49332q.0091-.74062-.02741-1.50738h0a5.53774,5.53774,0,0,0-.0274-.63036q-.06283-2.08016-.27407-4.13846l-24.36485-2.22M173.4282,114.57765a31.3587,31.3587,0,0,0-3.974-1.39775l-28.0648-2.7133a29.74374,29.74374,0,0,1,3.26143,6.41325q.20373.5339.3837,1.06887a32.52722,32.52722,0,0,1,.877,3.34366.50025.50025,0,0,1,.0274.137,1.03576,1.03576,0,0,1,0,.137q.00246.08951,0,.16444l-.0274.137a1.0939,1.0939,0,0,1-.32889.57555l-5.78288,5.61844q.04025,1.37153.05481,2.7407l45.38605,4.13846q.841-8.90964-3.53551-14.38869l.02741.02741a22.0102,22.0102,0,0,0-8.30433-6.00215m8.05767,15.21091h-.02741a1.72021,1.72021,0,0,1,.02741,2.43923l-.02741.0274a1.541,1.541,0,0,1-1.20591.49333,1.65746,1.65746,0,0,1-1.23332-.52073v.0274a1.78159,1.78159,0,0,1-.52073-1.26072,1.74229,1.74229,0,0,1,.52073-1.20591,1.8069,1.8069,0,0,1,1.23332-.52074,1.71769,1.71769,0,0,1,1.23332.52074m-11.89466-1.64443a1.62127,1.62127,0,0,1,1.20591.52075h0a1.69826,1.69826,0,0,1,.52074,1.23331,1.57667,1.57667,0,0,1-.52074,1.20591h0a1.5909,1.5909,0,0,1-1.20591.52073,1.6635,1.6635,0,0,1-1.23331-.52073,1.62126,1.62126,0,0,1-.52074-1.20591,1.7785,1.7785,0,0,1,1.754-1.75406m-23.73449-2.41181a1.70247,1.70247,0,0,1,1.23332.52073,1.644,1.644,0,0,1,.52073,1.23332,1.54642,1.54642,0,0,1-.52073,1.20591v.0274a1.72018,1.72018,0,0,1-2.43923-.0274v.0274a1.734,1.734,0,0,1-.52073-1.23331,1.79036,1.79036,0,0,1,.52073-1.23332,1.74229,1.74229,0,0,1,1.20591-.52073m13.10056,4.19327h-.0274a1.56334,1.56334,0,0,1-1.20591.52074,1.653,1.653,0,0,1-1.20591-.52074h0a1.63388,1.63388,0,0,1-.52074-1.23331,1.65189,1.65189,0,0,1,.52074-1.20591,1.68847,1.68847,0,0,1,2.43922,0h-.0274a1.58541,1.58541,0,0,1,.52073,1.20591,1.612,1.612,0,0,1-.49333,1.23331M178.937,105.56074l-.137-2.90515L107.54169,93.995l-.05482,3.04217q1.555.10856,2.79552.19185,1.50546.10418,2.54886.19186h.10962q2.65143.1911,5.01549.49332h0q1.52077.1653,2.90515.3837a40.65479,40.65479,0,0,1,9.64727,2.494.34221.34221,0,0,1,.16445.05482,29.66828,29.66828,0,0,1,3.5355,2.00071q.95283.62318,1.80887,1.28813a22.03609,22.03609,0,0,1,2.08293,1.83627l.10963.10962a3.435,3.435,0,0,1,.24666.27407.142.142,0,0,1,.02741.02741h.02741l31.1892,3.20663,2.30219-2.79552v.02741a3.11928,3.11928,0,0,1,2.68589-1.37036l4.24809.10963m33.05288,9.01691a17.27422,17.27422,0,0,0-4.87845-2.46663q-9.58089-2.16248-26.00927-2.90514-.22653.00963-.46592,0h-.137q-.01359-.00117-.05481,0-.157-.00932-.32888-.02741a2.57438,2.57438,0,0,0,.32888.137q.26337.12054.49333.21925a24.505,24.505,0,0,1,7.50952,5.04289,19.153,19.153,0,0,1,5.34437,10.8806l28.22925,2.71329a51.72624,51.72624,0,0,0-3.4807-6.41324,25.18738,25.18738,0,0,0-6.55028-7.18065M161.53355,92.04908q-.00043-.91878-.08223-1.9459l-9.64727,5.04289a4.54283,4.54283,0,0,1-.137.52073l-.0274.30148,9.01691,1.17851q.0001-.04315,0-.08223.08736-.22461.137-.35629l.05481-.21926a.35318.35318,0,0,1,.05481-.137q.15459-.50543.21926-.74v.02741q.13543-.64428.24666-1.28813v-.02741a.49226.49226,0,0,1,0-.05481,15.12961,15.12961,0,0,0,.16445-2.22m3.01477-3.59033a22.85382,22.85382,0,0,1,.32888,3.39847,18.66558,18.66558,0,0,1-.137,2.49405,1.19406,1.19406,0,0,1-.02741.16444,13.9396,13.9396,0,0,1-.27407,1.5348q-.097.39505-.21925.76739l-.21926.74,7.56434.95925q-.05952-.698-.137-1.28814-.203-1.87074-.35629-2.65848v-.0274q-.095-.5232-.19185-1.01407-.18885-.8904-.4111-1.754a37.08874,37.08874,0,0,0-1.64443-4.96068q-.08907-.25738-.19184-.52073l-4.08365,2.16515m-7.37249-16.33459q-.43069-.30522-.877-.603l-51.41559-7.3999q-2.18594-.13071-2.08294,1.78146A85.25862,85.25862,0,0,1,106.555,77.57816q.16809.607.30148,1.20591.40437,1.70654.71259,3.42588.17835,1.00827.32888,2.00071.18554,1.29711.32888,2.60367.02088.18533.02741.35629.195,1.70791.30148,3.42588h.137L121.026,92.1587h.02741q.00374-.146,0-.30148.05781-2.48814-.05482-4.2755-.04133-.97519-.16444-2.16515-.14882-1.43287-.41111-3.17922a52.58612,52.58612,0,0,0-1.72664-7.48211,5.36855,5.36855,0,0,1,2.13775-1.67183,5.678,5.678,0,0,1,1.72664-.41111l28.25665,3.91921,6.35844-4.46735m-43.13867,4.714v-.02741q.07248.08254.137.16445a1.764,1.764,0,0,1,.49333,1.20591,1.7,1.7,0,0,1-.43851,1.23331h0a1.38633,1.38633,0,0,1-.84962.52073.90844.90844,0,0,1-.21926,0,1.4199,1.4199,0,0,1-1.12369-.46591,1.87436,1.87436,0,0,1-.49332-1.1511.12489.12489,0,0,0,0-.08222,1.8763,1.8763,0,0,1,.43851-1.23331,1.06062,1.06062,0,0,0,.137-.137,1.47826,1.47826,0,0,1,.93184-.4111,1.50423,1.50423,0,0,1,.98666.38369m-4.577-8.79766a1.438,1.438,0,0,1,2.19256-.02741,1.71314,1.71314,0,0,1,.46592,1.20591.296.296,0,0,1,0,.137,1.571,1.571,0,0,1-.4111,1.09628,1.21553,1.21553,0,0,1-.63036.43851,1.02317,1.02317,0,0,1-.46592.08223,1.378,1.378,0,0,1-1.09628-.46592,1.86636,1.86636,0,0,1-.05482-2.46664m3.5081,20.80194a1.92831,1.92831,0,0,1-.16444-.76739,1.87757,1.87757,0,0,1,.4111-1.26073,1.96131,1.96131,0,0,1,.3837-.30148,1.53526,1.53526,0,0,1,.71259-.21925,1.39629,1.39629,0,0,1,1.09628.49332,1.78873,1.78873,0,0,1,.49332,1.23332,1.65384,1.65384,0,0,1-.4111,1.20591,1.41337,1.41337,0,0,1-1.09628.54814,1.34173,1.34173,0,0,1-.74-.19185,1.3101,1.3101,0,0,1-.21926-.16444,1.23821,1.23821,0,0,1-.137-.137,1.95182,1.95182,0,0,1-.32889-.43851m31.40846-2.02812a6.92723,6.92723,0,0,0-.02741.90443,6.15184,6.15184,0,0,0,.32889,1.5348q.06316.16187.10963.30147l41.54906-25.29668v-.02741a12.12443,12.12443,0,0,1-1.23331-2.93256,13.84147,13.84147,0,0,1-.41111-2.68589v-.0274a15.30078,15.30078,0,0,1,0-1.83628l-38.041,26.393a.35978.35978,0,0,1-.05482.05481,4.72878,4.72878,0,0,0-2.16515,3.20663q-.0363.20886-.05482.4111M125.71255,76.26262h-.0274a1.17849,1.17849,0,0,0-.3837.137,14.12035,14.12035,0,0,1,3.04218,7.50952,16.04669,16.04669,0,0,1-1.617,8.30434q-.16582.315-.35629.63036L138.59386,94.269q3.29634-10.91827,4.19327-12.08651l4.38513-3.04218-21.45971-2.87774M227.146,36.87871a13.60045,13.60045,0,0,0-9.64728-4.46734,14.26016,14.26016,0,0,0-8.38656,2.11034L206.07,36.8239q-6.70722,5.26419-12.82649,10.5243l-3.75476,3.234q-.10491.12057-.21926.24667a11.07424,11.07424,0,0,0-1.67183,2.46663,11.7519,11.7519,0,0,0-.57554,1.50739q.00813.0292,0,.0274v.05482h-.02741v.0274l-.02741.02741a10.161,10.161,0,0,0-.30147,1.58961,11.41238,11.41238,0,0,0-.02741,1.94589v.02742a11.87743,11.87743,0,0,0,.24666,1.94589l15.2109-10.41467a9.63809,9.63809,0,0,1,1.23332-5.23474q-.0228.32364.02741,1.69924a16.30212,16.30212,0,0,0,.38369,2.87774l-.0274.0274a13.15482,13.15482,0,0,0,1.67183,3.78217,15.33035,15.33035,0,0,0,1.64442,2.13774,15.8069,15.8069,0,0,0,1.89109,1.72666,1.35253,1.35253,0,0,1,.27407.19184q.2457.17922.46591.32888.06093.03225.10963.05482a13.46,13.46,0,0,0,6.934,2.19256,13.94468,13.94468,0,0,0,5.01548-.63036.04176.04176,0,0,0,.02741-.02741.06935.06935,0,0,0,.05482-.0274h0a13.28558,13.28558,0,0,0,4.79623-2.90514,12.86783,12.86783,0,0,0,4.3303-9.45543,13.29076,13.29076,0,0,0-2.16515-7.86582h0a16.8951,16.8951,0,0,0-1.617-2.02813m-5.72808-1.754q.363.12559.71259.27407a8.80929,8.80929,0,0,1,3.06959,2.19257q-.20758-.09924-.41111-.19186a5.988,5.988,0,0,0-2.76811-.63036L209.52326,48.33485a8.62069,8.62069,0,0,0,1.86368,3.37108l16.93755-9.78432a4.975,4.975,0,0,1,.90443,3.28885q.01925.49943-.02741.32889L213.03137,53.1859a8.38579,8.38579,0,0,0,2.05552,1.06888l13.07315-3.837a7.48768,7.48768,0,0,1-2.494,3.5081,10.60574,10.60574,0,0,1-8.03026,2.90514h-.02741a10.91437,10.91437,0,0,1-4.76882-1.26072h0a11.57065,11.57065,0,0,1-2.57626-1.89109l-.02741-.0274q-.21282-.2125-.43851-.43851V53.1859a12.47373,12.47373,0,0,1-1.23332-1.56221.34819.34819,0,0,0-.05481-.0548.31774.31774,0,0,0-.0274-.05481,10.56037,10.56037,0,0,1-1.37036-3.12441v-.0274a11.171,11.171,0,0,1-.32888-3.15181,10.57784,10.57784,0,0,1,3.5081-7.72879,10.73068,10.73068,0,0,1,8.03026-2.90514A11.47267,11.47267,0,0,1,221.41791,35.12467Z"/><path class="c" d="M156.32858,207.4685a.56952.56952,0,0,0-.62893.62894v25.43237a5.89714,5.89714,0,0,0,1.96541,4.48114,6.44835,6.44835,0,0,0,4.67767,1.84749h3.61635a6.38618,6.38618,0,0,0,4.67767-1.84749,5.90639,5.90639,0,0,0,1.96541-4.48114V208.09744a.57081.57081,0,0,0-.62893-.62894H167.61a.56951.56951,0,0,0-.62893.62894v25.43237a.88659.88659,0,0,1-1.022.9827h-3.61635q-1.02984.00371-1.022-.9827V208.09744a.5708.5708,0,0,0-.62893-.62894h-4.3632m-7.97956,1.88679a6.62574,6.62574,0,0,0-4.67767-1.88679H140.055a6.62543,6.62543,0,0,0-4.67767,1.88679,5.95541,5.95541,0,0,0-2.00472,4.48114v19.69338a5.935,5.935,0,0,0,2.00472,4.48114,6.42743,6.42743,0,0,0,4.67767,1.84749h3.61636A6.42772,6.42772,0,0,0,148.349,238.011a5.86969,5.86969,0,0,0,1.9261-4.48114V213.83643a5.88922,5.88922,0,0,0-1.9261-4.48114m-4.67767,3.53773q.99821-.00291.9827.94341v19.69338a.85866.85866,0,0,1-.9827.9827H140.055q-1.03966.00371-1.06131-.9827V213.83643q.02164-.94631,1.06131-.94341h3.61636m78.89149.94341v6.25a5.93915,5.93915,0,0,0,1.96541,4.48112,6.44759,6.44759,0,0,0,4.67766,1.88679h3.73428a.84085.84085,0,0,1,.9434.9434v6.13207q.00385.98638-.9434.9827h-9.7091q-.67025.00494-.66825.629v4.12735q-.002.614.66825.58963h9.7091a6.31726,6.31726,0,0,0,4.63838-1.84749,5.90649,5.90649,0,0,0,1.96541-4.48114v-6.13207a6.0238,6.0238,0,0,0-1.88681-4.48114,6.50041,6.50041,0,0,0-4.717-1.88678h-3.73428q-1.01985-.008-1.022-.94339v-6.25q.00216-.94631,1.022-.94341h9.74844q.59743.00478.58963-.62892v-4.16666a.54815.54815,0,0,0-.58963-.62894h-9.74844a6.671,6.671,0,0,0-4.67766,1.88679,5.917,5.917,0,0,0-1.96541,4.48114m-27.673,0a5.919,5.919,0,0,0-1.88678-4.48114,6.66858,6.66858,0,0,0-4.717-1.88679h-3.65566a6.59827,6.59827,0,0,0-4.67768,1.88679,5.93385,5.93385,0,0,0-1.96541,4.48114v25.43238q.01967.614.66825.58963h4.36321q.5973.02439.58962-.58963V213.87572a.88539.88539,0,0,1,1.022-.9827h3.65566a.85859.85859,0,0,1,.9827.9827v25.39309q.01965.614.66825.58963h4.36319q.59728.02439.58962-.58963V213.83643m20.36163-4.48114a6.60313,6.60313,0,0,0-4.67766-1.88679h-9.6305q-.64858.02454-.66824.62894v31.17137q.01965.614.66824.58963h9.6305a6.40686,6.40686,0,0,0,4.67766-1.84749,5.8697,5.8697,0,0,0,1.92611-4.48114V213.83643a5.88923,5.88923,0,0,0-1.92611-4.48114m-4.67766,3.53773q1.00806-.00386.98271.9827v19.65409q.02534.98638-.98271.9827h-4.00944a.59815.59815,0,0,1-.66824-.66822v-20.283a.60375.60375,0,0,1,.66824-.66824h4.00944M48.978,212.85372q.59746-.00507.58963-.62892v-4.12736a.54813.54813,0,0,0-.58963-.62894h-9.6698a6.714,6.714,0,0,0-4.717,1.88679,5.89737,5.89737,0,0,0-1.9261,4.48114v19.69338a5.87761,5.87761,0,0,0,1.9261,4.48114,6.51378,6.51378,0,0,0,4.717,1.84749H48.978q.59746.02439.58963-.58963v-4.12735q.00783-.624-.58963-.629h-9.6698a.88555.88555,0,0,1-1.022-.9827v-6.52515a.56391.56391,0,0,1,.62893-.62892H48.978q.59746.01458.58963-.62894v-4.16666a.51458.51458,0,0,0-.58963-.58962H38.91508q-.62892-.006-.62893-.58963v-6.56446a.88548.88548,0,0,1,1.022-.98271H48.978m-32.97955,1.022q-.00766-.98652,1.022-.9827h3.61635a.88652.88652,0,0,1,1.022.9827v25.39309q0,.614.62893.58963h4.36321a.52767.52767,0,0,0,.62893-.58963V213.83643a5.90747,5.90747,0,0,0-1.9261-4.48114,6.62379,6.62379,0,0,0-4.717-1.88679H17.02044a6.69087,6.69087,0,0,0-4.717,1.88679,5.89807,5.89807,0,0,0-1.9261,4.48114v25.43238q0,.614.62893.58963h4.3632a.52774.52774,0,0,0,.62893-.58963V213.87572m105.4245-6.40722h-9.70911a.56961.56961,0,0,0-.62893.62894v31.09275q.00015.68373.62893.66825h4.3632q.6681.01551.66824-.66825v-9.51258a.43023.43023,0,0,1,.19655-.39308.56219.56219,0,0,1,.55031.03932l3.49842,2.31917a3.09283,3.09283,0,0,1,1.4151,2.63365v4.99214q.00016.614.62893.58963h4.3239q.6681.02439.66824-.58963v-4.99214a8.25106,8.25106,0,0,0-3.81289-7.03617l-.70755-.43238a.37943.37943,0,0,1-.15724-.39308.52047.52047,0,0,1,.27516-.39308,6.27729,6.27729,0,0,0,3.184-2.27987,6.02611,6.02611,0,0,0,1.21855-3.695v-6.21068a5.92641,5.92641,0,0,0-1.96541-4.48114,6.51133,6.51133,0,0,0-4.63837-1.88679m-4.04873,5.38522h4.04873a.86361.86361,0,0,1,.98271.98271v6.21068q.00568.93543-.98271.94341h-4.04873q-.62878-.006-.62894-.58963V213.522q.00017-.66428.62894-.66825m-34.04088-4.75628a.60378.60378,0,0,0-.66823-.66824H78.30187a.58693.58693,0,0,0-.62893.66824v25.43237a.88661.88661,0,0,1-1.022.9827H72.99526a.83037.83037,0,0,1-.94339-.94338V208.09744a.60378.60378,0,0,0-.66824-.66824H66.98111q-.58763.02361-.58962.66824v25.47169q-.00414.94616-1.022.94338H61.71382q-.94723.00371-.94339-.9827V208.09744q.00184-.64461-.70755-.66824H55.69967a.587.587,0,0,0-.62893.66824v25.43237a5.89721,5.89721,0,0,0,1.96541,4.48114,6.44838,6.44838,0,0,0,4.67767,1.84749h3.65566a6.348,6.348,0,0,0,3.26258-.86479,1.1924,1.1924,0,0,1,1.10062,0,6.26819,6.26819,0,0,0,3.26258.86479h3.65566a6.38585,6.38585,0,0,0,4.67767-1.84749,5.84583,5.84583,0,0,0,2.00472-4.48114V208.09744m11.0456,5.77828q.02179-.98652,1.06132-.9827h3.61635q1.008-.00386.9827.9827v3.8129q.01965.614.66825.58962h4.36319q.60714.0244.58963-.58962v-3.85219a5.88922,5.88922,0,0,0-1.9261-4.48114,6.60283,6.60283,0,0,0-4.67767-1.88679H95.44023a6.62543,6.62543,0,0,0-4.67768,1.88679,5.95533,5.95533,0,0,0-2.00471,4.48114v19.69338a5.935,5.935,0,0,0,2.00471,4.48114,6.42744,6.42744,0,0,0,4.67768,1.84749h3.61635a6.40659,6.40659,0,0,0,4.67767-1.84749,5.86969,5.86969,0,0,0,1.9261-4.48114V224.371a.53254.53254,0,0,0-.58963-.62892H97.91665a.55862.55862,0,0,0-.62894.62892v4.12736q.00015.614.62894.58962h1.533q.60713.02364.58962.66824v3.77358q.02533.98638-.9827.9827H95.44023q-1.03952.00371-1.06132-.9827Z"/></svg>