<?xml version="1.0" encoding="UTF-8"?>
<svg id="_Слой_1" data-name="Слой 1" xmlns="http://www.w3.org/2000/svg" xmlns:xlink="http://www.w3.org/1999/xlink" viewBox="0 0 157.15 157.17">
  <defs>
    <linearGradient id="GradientFill_1" data-name="GradientFill 1" x1="117.97" y1="150.23" x2="6.94" y2="39.22" gradientUnits="userSpaceOnUse">
      <stop offset="0" stop-color="#834d99"/>
      <stop offset=".45" stop-color="#7e9acf"/>
      <stop offset=".9" stop-color="#8dcfd7"/>
      <stop offset="1" stop-color="#97d2d4"/>
    </linearGradient>
  </defs>
  <path d="m0,.16C6.59.03,13.19-.16,19.77.27c6.93.23,16.31,1.76,23.08,3.34,11.88,2.77,23.42,6.96,34.3,12.49,20,10.46,35.34,23.24,49.31,40.84,8.52,11.59,12.18,18.01,17.95,30.08,4.74,10.38,8.31,21.82,10.38,33.03,2.34,13.16,2.59,23.82,2.22,37.12h-18.13c.51-8.24.53-14.98-.25-22.8-1.28-11.21-3.63-21.7-7.57-32.27-4.21-11.32-10.05-22.02-17.18-31.76-5.05-6.78-10.72-13.12-17.01-18.77-9.5-8.84-21.79-16.86-33.67-22.12C37.69,17.97,26.08,18.47,0,18.02V.16h0Zm0,135.44c3.85-3.02,10.05-5.07,14.7-3,2.22.99,4.37,2.16,6.12,3.87,5.49,5.38,5.85,14.97.71,20.7h20.27c3.45-11.22.7-24.24-7.53-32.71-3.38-3.64-7.56-6.53-12.2-8.31-7.79-2.55-14.22-2.95-22.07-.75v20.2h0Zm117.92-5.69c-.84-5-1.89-9.98-3.45-14.8-5.91-19.19-17.14-36.75-32.25-49.99-12.36-10.71-25.35-17.74-41.02-22.69-7.38-2.1-14.95-3.58-22.6-4.12-5.78-.42-11.58-.39-17.36,0-.31-.03-.93-.07-1.24-.09v17.93c14.81-1.24,33.12,1.67,46.23,7.31,8.07,3.5,16.06,8.44,22.73,14.16,15.16,12.71,25.82,30.6,30.1,49.89,2.53,11.31,1.86,18.52,1.86,29.66h18c.47-9.09.59-18.27-1-27.26h0ZM0,94.82c6.48-1.17,14.68-1.34,21.12.26,5.65,1.4,11.18,3.37,16.17,6.42,7.65,4.56,14.09,11.08,18.6,18.76,6.63,11.02,8.52,24.29,6.63,36.91h18.15c2.12-16.48-1.3-33.64-10.19-47.75-5.46-8.72-12.78-16.25-21.4-21.88-6.43-4.11-13.46-7.35-20.86-9.27-11.29-2.64-18.3-2.83-28.22-2.05v18.6Z" style="fill: url(#GradientFill_1); fill-rule: evenodd;"/>
  <path d="m127.05,7.33c5.69-5.29,14.78-5.17,20.87-.61-.98.87-1.97,1.73-2.97,2.57-5.57-3.79-13.88-2.48-17.52,3.35-4.68,6.41-1.04,16.48,6.57,18.58,7.63,2.79,16.53-3.93,16.06-12.02,1.16-.97,2.32-2.04,3.8-2.52.58,5.43-1.2,11.26-5.45,14.85-6.39,6.03-17.7,5.12-23.15-1.73-5.44-6.4-4.74-17.07,1.79-22.47h0Zm10.72,11.49c-2.2-.93-4.1-2.64-6.28-3.68.05,1.6.12,3.21.21,4.81,2,1.27,4.02,2.52,6.09,3.69,4.84-3.81,10.2-7.02,14.74-11.2-.71-.97-1.42-1.93-2.12-2.9-4.17,3.15-8.35,6.29-12.64,9.28Z" style="fill: #a2a2a2; fill-rule: evenodd;"/>
</svg>